# xmcd
#
# Track frame offsets:
#	150
#	12796
#	33341
#	50217
#	66858
#	81537
#	97868
#	117270
#	136326
#	153121
#	173146
#	192884
#	211849
#	227667
#	244136
#
# Disc length: 3514 seconds
#
# Revision: 0
# Processed by: cddbd v1.5.2PL0 Copyright (c) Steve Scherf et al.
# Submitted via: EasyCDDAExtractor 10.0.1.1
#
DISCID=c20db80f
DTITLE=宋祖英 - 民歌颂中华
DYEAR=1900
DGENRE=
TTITLE0=好日子
TTITLE1=望月
TTITLE2=大地飞歌
TTITLE3=长大后我就成了你
TTITLE4=辣妹子
TTITLE5=小背篓
TTITLE6=又唱浏阳河
TTITLE7=龙船调
TTITLE8=十八湾水路到我家
TTITLE9=古丈茶歌
TTITLE10=爸爸妈妈
TTITLE11=月亮妹妹
TTITLE12=黄果树大瀑布
TTITLE13=珠江颂
TTITLE14=又唱江南
EXTD=
EXTT0=
EXTT1=
EXTT2=
EXTT3=
EXTT4=
EXTT5=
EXTT6=
EXTT7=
EXTT8=
EXTT9=
EXTT10=
EXTT11=
EXTT12=
EXTT13=
EXTT14=
PLAYORDER=
